<?xml version="1.0" encoding="iso-8859-1"?>
<!-- Generator: Adobe Illustrator 18.1.1, SVG Export Plug-In . SVG Version: 6.00 Build 0)  -->
<svg version="1.1" id="Capa_1" xmlns="http://www.w3.org/2000/svg" xmlns:xlink="http://www.w3.org/1999/xlink" x="0px" y="0px"
	 viewBox="0 0 21.41 21.41" style="enable-background:new 0 0 21.41 21.41;" xml:space="preserve">
<g>
	<path style="fill:#010002;" d="M14.786,5.35L5.681,0L0.332,9.106l9.104,5.349L14.786,5.35z M6.462,3.827l4.841,3.156L9.906,9.125
		L5.065,5.969L6.462,3.827z M21.001,5.768c-0.132,0.229-0.396,0.328-0.583,0.219c-0.613-0.354-1.227-0.708-1.839-1.062
		c-0.265-0.153-0.24-0.203-0.396,0.065c-2.485,4.305-4.972,8.609-7.457,12.916c-0.336,0.58-0.247,0.562-0.828,0.227l-0.603-0.348
		l-5.073-2.93c-0.361-0.207-0.511-0.633-0.332-0.941c0.179-0.309,0.62-0.393,0.982-0.184c1.535,0.888,3.07,1.773,4.606,2.66
		c0.521,0.301,0.44,0.313,0.741-0.207l6.963-12.062c0.097-0.165,0.19-0.33,0.285-0.494c0.213-0.367,0.153-0.37,0.521-0.157
		l2.91,1.68C21.088,5.26,21.134,5.537,21.001,5.768z M14.245,16.398c-1.384,0-2.506,1.121-2.506,2.506
		c0,1.384,1.122,2.506,2.506,2.506s2.506-1.123,2.506-2.506S15.629,16.398,14.245,16.398z M14.245,20.133
		c-0.679,0-1.228-0.55-1.228-1.229c0-0.678,0.549-1.228,1.228-1.228c0.678,0,1.228,0.55,1.228,1.228
		C15.473,19.583,14.923,20.133,14.245,20.133z M7.381,5.238l2.262,1.475L8.99,7.714L6.728,6.239L7.381,5.238z"/>
</g>
<g>
</g>
<g>
</g>
<g>
</g>
<g>
</g>
<g>
</g>
<g>
</g>
<g>
</g>
<g>
</g>
<g>
</g>
<g>
</g>
<g>
</g>
<g>
</g>
<g>
</g>
<g>
</g>
<g>
</g>
</svg>
