<?xml version="1.0" encoding="UTF-8"?>
<!DOCTYPE svg PUBLIC "-//W3C//DTD SVG 1.1//EN" "http://www.w3.org/Graphics/SVG/1.1/DTD/svg11.dtd">
<svg version="1.1" xmlns="http://www.w3.org/2000/svg" xmlns:xlink="http://www.w3.org/1999/xlink" x="0px" y="0px" width="512" height="512" viewBox="0, 0, 512, 512">
  <g id="Layer 3" display="none">
    <path d="M256,512 C194.758,511.988 134.765,489.677 88.467,449.574 C31.452,400.188 -2.787,325.134 0.084,249.393 C2.689,180.633 29.373,118.362 79.375,70.69 C127.899,24.427 189.24,0.845 256,-0 C397.385,-0 512,114.615 512,256 C512,397.385 397.385,512 256,512 z M320,384 L320,470.67 C371.189,455.413 415.881,421.709 444.711,376.734 C456.263,358.712 464.328,340.393 470.67,320 L448,320 C448,320 448,288 448,288 L416,288 L416,256 C416,256 320,256 320,256 C320,256 320,288 320,288 L384,288 L384,352 C384,352 352,352 352,352 L352,384 z M250.218,479.927 C262.844,480.223 275.511,479.578 288,477.67 L288,448 L256,448 L256,416 L224,416 C224,416 224,320 224,320 C224,320 128,320 128,320 L128,192 L224,192 L224,224 L320,224 L320,192 L320.233,159.832 L288,160 L288,192 L256,192 L256,160 L192,160 L192,128 L288,128 L288,96 L256,96 C256,96 256,64 256,64 C256,64 352,64 352,64 L352,53.626 C322.155,38.981 289.089,32.419 256,32 C208.511,32.273 167.386,45.59 128.162,72.089 C128.921,90.726 128.329,109.362 128,128 L72.198,128 C51.96,156.576 39.573,189.677 34.304,224.169 L64,224 L64,288 L34.33,288 C44.626,359.629 89.598,422.503 154.024,455.495 C182.203,469.925 207.456,476.169 238.765,479.347 z" fill="#000000"/>
  </g>
  <g id="Layer 2" display="none">
    <path d="M352,32 L160,32" fill="#000000"/>
    <path d="M96,160 L128,448 C128,448 128,480 160,480 C192,480 320,480 352,480 C384,480 384,448 384,448 L416,160 L352,160 L320,448 L288,448 L288,160 C288,160 224,160 224,160 C224,160 224,448 224,448 L192,448 L160,160 L96,160 z" fill="#000000"/>
    <g>
      <path d="M64,128 L448,128 L448,96 L352,96 L352,64 C352,64 352,32 320,32 C288,32 224,32 192,32 C160,32 160,64 160,64 L160,96 C160,96 64,96 64,96 C64,96 64,128 64,128 z" fill="#000000"/>
      <path d="M64,128 L448,128 L448,96 L352,96 L352,64 C352,64 352,32 320,32 C288,32 224,32 192,32 C160,32 160,64 160,64 L160,96 C160,96 64,96 64,96 C64,96 64,128 64,128 z" fill-opacity="0" stroke="#000000" stroke-width="1"/>
    </g>
  </g>
  <g id="Layer 3">
    <g>
      <path d="M256.007,403.398 L256.012,403.398 L256.007,403.398 L256.012,403.398 L384,403.398 C384,403.398 383.88,399.908 382.016,394.358 C379.479,386.817 376.336,379.194 373.416,375.615 C371.911,373.769 369.224,371.427 366.795,368.78 C364.369,366.135 357.202,364.592 353.228,362.609 C349.262,360.625 340.859,357.196 337.767,355.429 C334.675,353.667 328.044,352.005 325.622,350.46 C323.197,348.916 316.889,345.929 311.815,343.281 C306.742,340.633 300.555,334.559 300.555,334.559 C300.555,334.559 299.67,333.457 299.67,331.69 C299.67,329.924 298.126,328.159 297.689,326.619 C297.248,325.072 296.144,322.868 296.144,322.868 C296.144,322.868 294.595,321.102 293.715,318.236 C292.831,315.368 290.187,313.163 290.187,313.163 C290.187,313.163 289.965,309.411 289.965,305.445 C289.965,301.471 291.559,296.29 291.559,296.29 C291.559,296.29 297.683,290.379 299.223,285.307 C300.763,280.236 303.228,271.444 303.228,271.444 C303.228,271.444 308.232,269.893 308.518,267.029 C308.756,264.668 310.656,258.486 311.094,256.717 C311.759,254.073 312.371,251.052 313.115,247.884 C314.004,244.136 317.395,239.245 316.649,236.416 C316.125,234.451 312.526,232.083 312.526,232.083 C312.526,232.083 312.957,227.786 313.673,224.062 C314.465,219.94 316.762,208.699 316.539,201.865 C316.324,195.245 316.594,186.443 310.235,174.655 C307.677,169.916 297.343,160.087 292.937,157.221 C288.883,154.588 283.398,151.97 275.688,149.749 C275.688,149.749 262.828,147.398 256,147.398 C249.168,147.398 236.307,149.749 236.307,149.749 C228.598,151.97 223.116,154.587 219.063,157.221 C214.652,160.087 204.323,169.916 201.765,174.655 C195.404,186.442 195.677,195.25 195.462,201.865 C195.239,208.699 197.535,219.94 198.327,224.062 C199.039,227.788 199.47,232.083 199.47,232.083 C199.47,232.083 195.872,234.449 195.352,236.416 C194.604,239.246 197.997,244.137 198.881,247.885 C199.629,251.053 200.243,254.073 200.908,256.717 C201.346,258.481 203.244,264.668 203.483,267.029 C203.769,269.893 208.773,271.443 208.773,271.443 C208.773,271.443 211.235,280.237 212.777,285.306 C214.322,290.374 220.442,296.289 220.442,296.289 C220.442,296.289 222.036,301.472 222.036,305.444 C222.036,309.411 221.815,313.163 221.815,313.163 C221.815,313.163 219.168,315.368 218.287,318.236 C217.403,321.102 215.858,322.867 215.858,322.867 C215.858,322.867 214.758,325.072 214.313,326.619 C213.875,328.159 212.331,329.919 212.331,331.69 C212.331,333.45 211.447,334.558 211.447,334.558 C211.447,334.558 205.258,340.633 200.187,343.281 C195.114,345.928 188.806,348.914 186.383,350.458 C183.958,352.003 177.325,353.664 174.235,355.427 C171.145,357.193 162.745,360.62 158.776,362.608 C154.806,364.599 147.633,366.134 145.209,368.779 C142.784,371.426 140.097,373.772 138.59,375.614 C135.672,379.193 132.528,386.816 129.991,394.357 C128.133,399.908 128.013,403.398 128.013,403.398 L256.007,403.398 L256.012,403.398 L256.007,403.398 L256.012,403.398 L256.007,403.398 z" fill="#000000"/>
      <path d="M385.994,364.602 L385.813,364.36 C384.825,363.148 383.816,362.08 382.349,360.621 C381.626,359.904 382.118,360.391 380.871,359.161 C380.328,358.625 379.929,358.227 379.557,357.846 C379.193,357.474 378.872,357.136 378.584,356.822 C376.209,354.232 373.549,352.527 370.33,351.025 C368.58,350.208 366.977,349.588 364.443,348.682 C361.429,347.606 360.815,347.373 360.372,347.152 C358.579,346.255 357.215,345.638 352.463,343.529 C348.457,341.752 346.433,340.813 345.706,340.397 C343.351,339.055 341.33,338.25 337.394,336.856 C334.859,335.959 334.83,335.948 334.166,335.69 C330.25,334.113 326.801,331.315 322.832,329.803 C321.367,329.065 320.236,328.488 319.218,327.956 C319.001,327.843 318.675,327.648 318.276,327.383 C317.065,326.537 315.864,325.675 314.76,324.689 L314.268,323.249 C313.803,322.044 313.392,321.204 312.745,319.99 C312.435,319.13 312.112,318.23 311.751,317.399 C311.27,316.257 310.809,315.279 310.45,314.562 C310.143,313.949 309.836,313.336 309.529,312.723 C309.301,312.464 309.005,312.251 308.846,311.945 C308.56,311.397 308.426,310.782 308.215,310.201 C307.515,308.874 306.814,307.546 306.113,306.219 L305.985,306.035 C305.972,304.887 305.909,304.026 306.147,302.933 C307.057,301.909 306.327,302.739 308.247,300.367 C311.101,296.658 313.274,292.962 314.533,288.815 C314.946,287.456 315.435,285.801 315.986,283.902 L316.87,280.838 C318.684,279.384 317.814,280.169 319.477,278.476 C322.141,275.533 324.001,271.861 324.439,267.479 C324.413,267.733 324.401,267.809 324.403,267.801 C324.437,267.622 324.495,267.359 324.573,267.03 C324.739,266.327 324.971,265.436 325.27,264.344 C325.33,264.125 326.426,260.227 326.625,259.422 C326.819,258.65 327.027,257.779 327.254,256.784 C328.56,250.952 329.189,248.731 331.615,243.193 C332.838,239.277 333.26,235.52 332.12,231.196 C331.495,229.171 330.823,227.103 329.487,225.417 C329.861,223.482 329.702,224.312 329.967,222.929 C330.251,221.437 330.505,220.048 330.748,218.641 C332.014,211.321 332.697,205.303 332.53,200.203 C332.519,199.86 332.51,199.516 332.494,198.92 C332.335,192.886 332.114,189.766 331.25,185.171 C330.044,178.757 327.826,172.423 324.317,165.918 C320.554,158.947 308.687,147.239 301.661,142.669 C298.312,140.595 300.18,141.686 296.02,139.458 C296.968,137.287 296.405,138.495 297.759,135.859 C300.316,131.12 310.646,121.291 315.057,118.425 C319.109,115.791 324.591,113.174 332.301,110.953 C332.301,110.953 345.161,108.602 351.993,108.602 C358.822,108.602 371.682,110.953 371.682,110.953 C379.392,113.174 384.876,115.792 388.931,118.425 C393.337,121.291 403.671,131.12 406.229,135.859 C412.587,147.647 412.318,156.449 412.533,163.069 C412.755,169.903 410.458,181.144 409.667,185.266 C408.951,188.99 408.52,193.287 408.52,193.287 C408.52,193.287 412.118,195.655 412.643,197.62 C413.389,200.449 409.997,205.34 409.109,209.088 C408.365,212.256 407.753,215.277 407.087,217.921 C406.65,219.69 404.75,225.872 404.512,228.233 C404.225,231.097 399.221,232.648 399.221,232.648 C399.221,232.648 396.757,241.44 395.216,246.511 C393.677,251.583 387.553,257.494 387.553,257.494 C387.553,257.494 385.958,262.675 385.958,266.649 C385.958,270.615 386.181,274.367 386.181,274.367 C386.181,274.367 388.824,276.572 389.708,279.44 C390.589,282.306 392.138,284.072 392.138,284.072 C392.138,284.072 393.242,286.276 393.682,287.823 C394.12,289.363 395.664,291.128 395.664,292.894 C395.681,295.557 397.626,296.865 399.49,298.455 C402.115,300.695 404.827,302.741 407.809,304.485 C412.883,307.133 419.191,310.12 421.616,311.664 C424.038,313.209 430.669,314.871 433.76,316.633 C436.853,318.4 445.255,321.829 449.221,323.813 C453.195,325.796 460.363,327.339 462.789,329.984 C465.217,332.631 467.905,334.973 469.41,336.819 C472.329,340.398 475.473,348.021 478.009,355.562 C479.874,361.112 479.993,364.602 479.993,364.602 z" fill="#000000"/>
      <path d="M32.006,364.602 C32.006,364.602 32.126,361.112 33.984,355.561 C36.521,348.02 39.665,340.397 42.583,336.818 C44.09,334.976 46.777,332.63 49.202,329.983 C51.626,327.338 58.799,325.803 62.769,323.812 C66.738,321.824 75.138,318.397 78.228,316.631 C81.318,314.868 87.951,313.207 90.376,311.662 C92.799,310.118 99.107,307.132 104.18,304.485 C107.215,302.868 109.894,300.677 112.499,298.454 C114.478,296.766 116.16,295.619 116.324,292.894 C116.324,291.123 117.868,289.363 118.306,287.823 C118.751,286.276 119.851,284.071 119.851,284.071 C119.851,284.071 121.396,282.306 122.28,279.44 C123.161,276.572 125.808,274.367 125.808,274.367 C125.808,274.367 126.029,270.615 126.029,266.648 C126.029,262.676 124.435,257.493 124.435,257.493 C124.435,257.493 118.315,251.578 116.77,246.51 C115.228,241.441 112.766,232.647 112.766,232.647 C112.766,232.647 107.762,231.097 107.476,228.233 C107.237,225.872 105.339,219.685 104.901,217.921 C104.236,215.277 103.622,212.257 102.874,209.089 C101.99,205.341 98.597,200.45 99.345,197.62 C99.865,195.653 103.463,193.287 103.463,193.287 C103.463,193.287 103.032,188.992 102.32,185.266 C101.528,181.144 99.232,169.903 99.455,163.069 C99.67,156.454 99.397,147.646 105.758,135.859 C108.316,131.12 118.645,121.291 123.056,118.425 C127.109,115.791 132.591,113.174 140.3,110.953 C140.3,110.953 153.161,108.602 159.993,108.602 C166.821,108.602 179.681,110.953 179.681,110.953 C187.391,113.174 192.876,115.792 196.93,118.425 C201.336,121.291 211.671,131.12 214.229,135.859 C215.582,138.496 215.019,137.287 215.968,139.463 C211.823,141.684 213.685,140.595 210.344,142.665 C203.317,147.231 191.448,158.943 187.685,165.915 C184.175,172.419 181.956,178.754 180.75,185.168 C179.887,189.762 179.665,192.882 179.507,198.914 C179.491,199.513 179.482,199.858 179.47,200.205 C179.304,205.303 179.987,211.321 181.252,218.642 C181.495,220.049 181.75,221.438 182.033,222.929 C182.298,224.312 182.139,223.484 182.512,225.412 C181.319,227.179 180.385,229.102 179.883,231.186 C178.74,235.511 179.161,239.269 180.382,243.185 C181.903,247.794 184.388,251.922 184.772,256.891 C184.99,257.842 185.19,258.681 185.391,259.479 C185.576,260.223 186.654,264.061 186.73,264.339 C187.029,265.431 187.261,266.323 187.428,267.027 C187.506,267.357 187.563,267.621 187.598,267.801 C187.6,267.811 187.588,267.738 187.564,267.5 C188,271.862 189.86,275.534 192.525,278.477 C194.188,280.169 193.318,279.385 195.129,280.836 L196.018,283.918 C196.568,285.812 197.056,287.463 197.47,288.822 C198.733,292.967 200.902,296.654 203.749,300.357 C205.67,302.731 204.939,301.899 205.854,302.929 C206.027,304.038 206.127,304.859 206.017,306.034 L205.89,306.214 C204.378,309.078 203.149,311.84 201.541,314.584 C201.184,315.3 200.725,316.277 200.245,317.418 C199.913,318.262 199.57,319.125 199.261,319.979 C198.613,321.194 198.2,322.038 197.733,323.245 L197.24,324.689 C196.118,325.648 194.954,326.56 193.728,327.382 C193.327,327.648 192.999,327.844 192.781,327.958 C190.585,329.097 188.374,330.207 186.162,331.315 C184.954,331.922 184.059,332.376 183.225,332.805 C181.42,333.744 179.678,334.826 177.842,335.686 C177.178,335.944 177.159,335.951 174.615,336.851 C170.673,338.246 168.648,339.053 166.306,340.39 C165.57,340.81 163.553,341.746 159.536,343.529 C154.817,345.623 153.422,346.255 151.61,347.162 C151.171,347.382 150.53,347.625 147.56,348.685 C145.02,349.592 143.426,350.208 141.678,351.023 C138.455,352.526 135.793,354.231 133.413,356.829 C133.12,357.149 132.795,357.491 132.425,357.869 C131.507,358.798 130.577,359.715 129.647,360.633 C128.19,362.083 127.19,363.14 126.206,364.342 L126.012,364.602 z" fill="#000000"/>
    </g>
  </g>
  <defs/>
</svg>
