<svg width="237" height="237" viewBox="0 0 237 237" fill="none" xmlns="http://www.w3.org/2000/svg">
<rect width="237" height="237" rx="118.5" fill="black"/>
<path d="M164.443 139.655C174.138 129.961 180.25 121.843 180.25 109.618C180.25 102.816 178.186 96.1742 174.332 90.5695C170.478 84.9649 165.014 80.6611 158.663 78.2268C152.312 75.7924 145.371 75.342 138.758 76.9349C132.145 78.5278 126.171 82.0891 121.625 87.1486M164.443 139.655C163.237 140.861 161.806 141.817 160.231 142.47C158.656 143.122 156.967 143.458 155.262 143.458C153.557 143.458 151.869 143.122 150.293 142.47C148.718 141.817 147.287 140.861 146.081 139.655C147.386 140.835 148.438 142.269 149.172 143.868C149.907 145.467 150.308 147.199 150.352 148.959C150.396 150.718 150.082 152.468 149.43 154.102C148.777 155.736 147.798 157.221 146.554 158.465C145.309 159.709 143.825 160.688 142.191 161.341C140.556 161.994 138.807 162.308 137.047 162.264C135.288 162.219 133.556 161.818 131.957 161.084C130.357 160.349 128.924 159.298 127.744 157.992C128.95 159.194 129.908 160.622 130.562 162.195C131.217 163.767 131.555 165.453 131.557 167.156C131.559 168.859 131.226 170.546 130.576 172.12C129.926 173.694 128.971 175.125 127.768 176.33C126.607 177.492 125.223 178.408 123.699 179.023C122.176 179.638 120.544 179.94 118.902 179.91C117.259 179.88 115.639 179.52 114.139 178.85C112.639 178.18 111.289 177.215 110.17 176.012L76.3375 143.237C67.1688 134.068 58 123.677 58 109.618C58.0014 102.817 60.0657 96.1756 63.9203 90.5719C67.775 84.9682 73.2386 80.6654 79.5898 78.2318C85.941 75.7982 92.881 75.3482 99.4932 76.9413C106.105 78.5344 112.079 82.0956 116.625 87.1547C117.305 87.7863 118.198 88.1369 119.126 88.1358C120.054 88.1346 120.947 87.7819 121.625 87.1486M164.443 139.655C166.735 137.362 168.022 134.254 168.022 131.012C168.022 127.77 166.735 124.661 164.443 122.369L152.945 110.865C151.577 109.496 149.953 108.411 148.166 107.67C146.378 106.929 144.462 106.548 142.527 106.548C140.592 106.548 138.676 106.929 136.888 107.67C135.1 108.411 133.476 109.496 132.108 110.865L121.656 121.317C119.363 123.609 116.254 124.897 113.013 124.897C109.771 124.897 106.662 123.609 104.369 121.317C102.078 119.025 100.79 115.916 100.79 112.674C100.79 109.433 102.078 106.324 104.369 104.031L121.625 87.1486" stroke="white" stroke-width="12.225" stroke-linecap="round" stroke-linejoin="round"/>
</svg>
